<svg width="48" height="31" viewBox="0 0 48 31" fill="none" xmlns="http://www.w3.org/2000/svg">
<path d="M14.2163 0C15.6549 0 16.9665 0.126807 18.1512 0.380902C19.3359 0.634757 20.3514 1.0512 21.1975 1.6288C22.0436 2.20712 22.6995 2.97589 23.1649 3.93511C23.6303 4.89433 23.8631 6.07882 23.8631 7.48907C23.8631 9.01244 23.5175 10.2817 22.8265 11.2969C22.1351 12.3123 21.1129 13.1442 19.7591 13.7932C21.6206 14.3292 23.0098 15.2675 23.9267 16.6067C24.8427 17.9468 25.3021 19.5619 25.3021 21.4513C25.3021 22.9744 25.006 24.2934 24.4133 25.4078C23.8213 26.5224 23.0239 27.4319 22.0232 28.1361C21.0217 28.8417 19.8792 29.3631 18.596 29.7022C17.3048 30.0413 15.975 30.2118 14.64 30.2094H0.000244141V0H14.2163ZM13.3702 12.228C14.555 12.228 15.5279 11.9461 16.2897 11.3817C17.0513 10.8178 17.4319 9.90081 17.4319 8.63154C17.4319 7.92665 17.3051 7.3481 17.0513 6.89683C16.7974 6.44579 16.459 6.09251 16.0358 5.83914C15.6127 5.58504 15.1261 5.40948 14.5761 5.31005C14.0104 5.21016 13.437 5.16065 12.8625 5.16211H6.64297V12.2283L13.3702 12.228ZM13.7509 25.0476C14.3994 25.0476 15.0202 24.9839 15.6124 24.8571C16.2047 24.7301 16.7263 24.5185 17.1781 24.2221C17.6289 23.9265 17.9886 23.5242 18.2569 23.0162C18.5247 22.5088 18.6587 21.8601 18.6587 21.0699C18.6587 19.5192 18.2211 18.412 17.3471 17.7489C16.4725 17.0861 15.3161 16.7544 13.8777 16.7544H6.64297V25.0471L13.7509 25.0476ZM33.6616 24.413C34.5641 25.2882 35.8617 25.7246 37.5542 25.7246C38.7665 25.7246 39.8105 25.422 40.6847 24.8151C41.5592 24.2094 42.0952 23.5672 42.2926 22.8899H47.5813C46.7354 25.513 45.4373 27.3892 43.6889 28.517C41.9396 29.6455 39.824 30.2094 37.3421 30.2094C35.6215 30.2094 34.0698 29.9344 32.6879 29.3842C31.3055 28.8345 30.1347 28.0515 29.1765 27.0361C28.2173 26.0209 27.4768 24.8088 26.9549 23.3979C26.4328 21.9878 26.1725 20.4361 26.1725 18.7437C26.1725 17.1082 26.4398 15.585 26.9763 14.1746C27.5117 12.7645 28.273 11.5445 29.2613 10.5144C30.2479 9.48533 31.4259 8.67429 32.7941 8.0818C34.1618 7.48931 35.678 7.19343 37.3423 7.19343C39.2041 7.19343 40.8257 7.55296 42.2083 8.27225C43.59 8.99131 44.7255 9.95845 45.6143 11.1703C46.5027 12.3834 47.144 13.7658 47.5397 15.3165C47.9346 16.8682 48.0751 18.4898 47.9629 20.1823H32.1812C32.2655 22.1281 32.7583 23.5391 33.6616 24.413ZM40.4522 12.9048C39.7332 12.1154 38.6397 11.7201 37.1735 11.7201C36.2143 11.7201 35.4176 11.8827 34.7831 12.2066C34.1484 12.5316 33.6404 12.9327 33.2595 13.4125C32.8791 13.8924 32.6106 14.4003 32.4559 14.9356C32.3005 15.4717 32.2088 15.9513 32.1807 16.3742H41.9542C41.6723 14.8509 41.1718 13.6947 40.4522 12.9048ZM31.1547 1.53394H43.3662V4.91979H31.1547V1.53394Z" fill="#232323"/>
</svg>
