<svg width="48" height="48" viewBox="0 0 48 48" fill="none" xmlns="http://www.w3.org/2000/svg">
<path fill-rule="evenodd" clip-rule="evenodd" d="M23.9922 0.725098C18.2947 0.728054 12.784 2.74601 8.44544 6.41814C4.10691 10.0903 1.22351 15.1771 0.310788 20.7691C-0.601929 26.3611 0.515553 32.0935 3.46344 36.9415C6.41133 41.7894 10.9974 45.4366 16.4016 47.231C17.5938 47.4523 18.0429 46.7134 18.0429 46.0851C18.0429 45.4568 18.019 43.6351 18.0111 41.6435C11.3345 43.0859 9.92367 38.8261 9.92367 38.8261C8.83475 36.06 7.26097 35.3329 7.26097 35.3329C5.08313 33.855 7.42393 33.8827 7.42393 33.8827C9.83625 34.0526 11.104 36.3445 11.104 36.3445C13.2421 39.9918 16.7195 38.9367 18.0866 38.3203C18.3012 36.7752 18.9252 35.7241 19.6127 35.1274C14.2794 34.5268 8.67578 32.4799 8.67578 23.3359C8.64272 20.9645 9.52774 18.6712 11.1477 16.9305C10.9013 16.3298 10.0787 13.9036 11.3822 10.608C11.3822 10.608 13.3971 9.96781 17.9833 13.054C21.917 11.9843 26.0674 11.9843 30.0012 13.054C34.5834 9.96781 36.5943 10.608 36.5943 10.608C37.9018 13.8957 37.0792 16.3219 36.8328 16.9305C38.4579 18.6715 39.3447 20.9688 39.3087 23.3438C39.3087 32.5075 33.6932 34.5268 28.3519 35.1156C29.2103 35.8584 29.9773 37.3087 29.9773 39.5373C29.9773 42.7302 29.9495 45.2987 29.9495 46.0851C29.9495 46.7213 30.3827 47.4642 31.5988 47.231C37.0036 45.4364 41.5901 41.7885 44.5379 36.9398C47.4858 32.091 48.6027 26.3577 47.6889 20.7652C46.7752 15.1727 43.8903 10.0858 39.5504 6.41431C35.2104 2.74281 29.6984 0.72618 24.0002 0.725098H23.9922Z" fill="#232323"/>
<path d="M9.08057 34.9891C9.02891 35.1077 8.83815 35.1432 8.68316 35.0602C8.52816 34.9773 8.41292 34.8231 8.46856 34.7006C8.5242 34.5781 8.71098 34.5465 8.86598 34.6295C9.02097 34.7125 9.14018 34.8706 9.08057 34.9891Z" fill="#232323"/>
<path d="M10.0543 36.0679C9.97198 36.1091 9.87782 36.1206 9.78792 36.1004C9.69802 36.0802 9.61798 36.0296 9.56149 35.9572C9.40649 35.7913 9.37468 35.5621 9.49391 35.4593C9.61313 35.3566 9.82775 35.404 9.98275 35.57C10.1377 35.7359 10.1735 35.9651 10.0543 36.0679Z" fill="#232323"/>
<path d="M11.0002 37.4391C10.8531 37.5418 10.6028 37.4391 10.4637 37.2336C10.4252 37.1967 10.3946 37.1525 10.3737 37.1036C10.3528 37.0548 10.342 37.0022 10.342 36.9491C10.342 36.896 10.3528 36.8434 10.3737 36.7945C10.3946 36.7456 10.4252 36.7014 10.4637 36.6646C10.6107 36.5658 10.8611 36.6646 11.0002 36.8661C11.1393 37.0676 11.1433 37.3363 11.0002 37.4391Z" fill="#232323"/>
<path d="M12.2838 38.7668C12.1527 38.913 11.8864 38.8735 11.6678 38.6759C11.4492 38.4783 11.3976 38.2096 11.5287 38.0673C11.6599 37.9251 11.9261 37.9646 12.1527 38.1582C12.3792 38.3519 12.4229 38.6245 12.2838 38.7668Z" fill="#232323"/>
<path d="M14.084 39.5413C14.0244 39.727 13.7542 39.81 13.4839 39.731C13.2137 39.6519 13.0349 39.4306 13.0865 39.241C13.1382 39.0513 13.4124 38.9644 13.6866 39.0513C13.9608 39.1382 14.1357 39.3477 14.084 39.5413Z" fill="#232323"/>
<path d="M16.0474 39.6756C16.0474 39.8693 15.8248 40.0352 15.5387 40.0392C15.2525 40.0431 15.0181 39.8851 15.0181 39.6914C15.0181 39.4978 15.2406 39.3318 15.5267 39.3279C15.8129 39.3239 16.0474 39.4781 16.0474 39.6756Z" fill="#232323"/>
<path d="M17.8755 39.3714C17.9113 39.565 17.7125 39.7665 17.4264 39.8139C17.1403 39.8614 16.8899 39.7468 16.8541 39.5571C16.8184 39.3674 17.025 39.1619 17.3032 39.1106C17.5814 39.0592 17.8397 39.1777 17.8755 39.3714Z" fill="#232323"/>
</svg>
