<?xml version="1.0" encoding="UTF-8"?>
<svg id="Layer_3" xmlns="http://www.w3.org/2000/svg" version="1.1" viewBox="0 0 140.8 139.2">
  <!-- Generator: Adobe Illustrator 29.7.1, SVG Export Plug-In . SVG Version: 2.1.1 Build 8)  -->
  <defs>
    <style>
      .st0 {
        fill: #f0f0f0;
      }
    </style>
  </defs>
  <polygon class="st0" points="66.5 24.7 66.5 114.5 41.6 114.5 41.6 63.3 31.7 63.3 31.7 114.5 6.7 114.5 6.7 24.7 31.7 24.7 31.7 47.4 41.6 47.4 41.6 24.7 66.5 24.7"/>
  <polygon class="st0" points="99.3 40.8 99.3 47.4 112.2 47.4 112.2 63.3 99.3 63.3 99.3 114.5 74.4 114.5 74.4 24.7 115.7 24.7 115.7 40.8 99.3 40.8"/>
  <g>
    <path class="st0" d="M120.8,33.8v-7.4h-2.7v-1.7h7.3v1.7h-2.7v7.4h-1.9Z"/>
    <path class="st0" d="M126.3,33.8v-9h2.7l2.2,6.3h-.3l2.2-6.3h2.7v9h-1.8v-6.8h.2s-2.2,6-2.2,6h-1.8l-2.2-6h.2s0,6.8,0,6.8h-1.8Z"/>
  </g>
</svg>