<?xml version="1.0" encoding="UTF-8"?>
<svg id="Layer_2" data-name="Layer 2" xmlns="http://www.w3.org/2000/svg" viewBox="0 0 341.45 271.01">
  <defs>
    <style>
      .cls-1 {
        fill: none;
        stroke: #000;
        stroke-miterlimit: 10;
        stroke-width: .5px;
      }
    </style>
  </defs>
  <g id="Layer_1-2" data-name="Layer 1">
    <path class="cls-1" d="M274.34,74.06c-3.82-.6-7.7-.88-11.57-.82-1.23.02-2.55.1-3.54.84-4.22,3.13-5.08,11.31-9.56,15.47-7.34,6.8-15.54,12.48-22.62,19.66-7.61,7.71-14.65,15.99-21.04,24.73-5.67,7.76-10.83,15.91-15.03,24.55-2.61.03-3.36-3.59-5.97-3.56-1.21,4.21,2.39,8.31,6.2,10.48s8.29,3.53,11.05,6.94c4.08,5.04,6.12,9.65,10.68,14.27,2.78,2.81,5.74,5.49,9.17,7.47,14.13,8.17,34.01,3.41,46.2,14.26"/>
    <path class="cls-1" d="M259.38,194.3c-11.11-9.74-22.22-19.48-33.33-29.22-2.94-2.58-6.16-5.28-10.06-5.61,5.11-5.55,10.92-10.46,17.23-14.59,3.63-2.38,7.44-4.49,11.05-6.9,7.25-4.83,13.67-10.79,20.06-16.72"/>
    <path class="cls-1" d="M211.18,167.13c7.47,2.67,14.24,7.25,19.5,13.18"/>
    <path class="cls-1" d="M260.02,102.26c6.7-8.11,13.74-17.13,13.81-27.64.05-8.15-4.13-15.62-7.77-22.91s-3.07-17.92-1.09-25.82c1.92,17.99,9.64,39.78,17.64,56.01,4.53,9.18,8.54,21.26,17.93,25.32-8.85-5.18-16.2-11-20.2-20.44-2.14,11.23-10.84,21.31-16.46,31.27,4.73-.56,9.24,2.71,11.62,6.83s3.06,8.97,3.71,13.69"/>
    <path class="cls-1" d="M309.96,29.11c-5.54.79-10.15,5.85-10.43,11.43,4.59-1.53,8.42-5.17,10.18-9.67"/>
    <path class="cls-1" d="M303.08,33.95c.26,1.03,1.01,1.93,1.98,2.37"/>
    <path class="cls-1" d="M304.94,31.15c1.52.33,2.86,1.41,3.5,2.82"/>
    <path class="cls-1" d="M276.4,37.54c2.33-.91,4.88-1.07,7.39-1.21,1.8-.1,3.61-.21,5.41-.31.55-.03,1.12-.06,1.65.07"/>
    <path class="cls-1" d="M278.15,39.13l10.02,1.97"/>
    <path class="cls-1" d="M283.86,36.7c.42.87,1.28,1.48,2.2,1.77s1.91.3,2.88.21c.33-.03.68-.08.94-.29.51-.44.37-1.3.81-1.81"/>
    <path class="cls-1" d="M312.16,18.15c-.55-6.37-5.05-11.98-10.73-14.91s-12.36-3.46-18.7-2.64c-5.24.68-10.94,2.72-13.19,7.5-1.04,2.2-1.19,4.71-1.21,7.14-.12,18.33,6.51,35.96,13.04,53.09"/>
    <path class="cls-1" d="M315.86,74.74c-.39,1.32-1.89,1.91-3.22,2.27-4.06,1.1-8.26,1.67-12.46,1.71-1.9.01-3.92-.12-5.44-1.26-2.76-2.07-2.6-6.38-4.83-9"/>
    <path class="cls-1" d="M293.61,67.34c-4.59-1.02-8.74-3.89-11.31-7.83-2.48-3.79-3.93-8.84-8.12-10.55"/>
    <path class="cls-1" d="M312.04,59.01c-2.26-2.33-6.64-1.98-8.51.68-.3.42-.57.92-1.06,1.08-.46.16-.96-.04-1.41-.22-1.34-.55-2.78-1.03-4.21-.82s-2.84,1.29-2.94,2.73"/>
    <path class="cls-1" d="M292.41,43.3c2.14,3.25,2.57,7.56,1.13,11.18,1.83.43,3.66.86,5.5,1.29.86.2,1.79.4,2.59.03.53-.25.93-.71,1.3-1.16.75-.9,1.5-1.8,2.24-2.7.7-.84,1.44-1.82,1.29-2.9s-1.81-1.78-2.34-.83"/>
    <path class="cls-1" d="M315.34,61.31l-11.22-.22c-.65-.01-1.32-.02-1.91.23-.36.15-.67.38-.98.62-3.19,2.49-6.36,5.8-10.4,5.71"/>
    <path class="cls-1" d="M310.51,63.62c-.01,1.9-1.51,3.53-3.26,4.29s-3.7.82-5.59.87c-1.26.03-2.51.07-3.77.1,2.96-1.61,9.34-6.03,12.62-5.26Z"/>
    <path class="cls-1" d="M283.35,5.85c.65,3.79,1.71,7.51,3.14,11.07"/>
    <path class="cls-1" d="M288.47,8.63c-.21,2.27.02,4.57.69,6.75"/>
    <path class="cls-1" d="M292.6,10.52c-.99,2.28-.92,4.99.2,7.21"/>
    <path class="cls-1" d="M278.76,5.03c-.95,5.85.75,12.09,4.56,16.63"/>
    <path class="cls-1" d="M274.59,10.38c5.8.33,11.63.05,17.38-.83"/>
    <path class="cls-1" d="M275.41,15.85l17.37-2.96"/>
    <path class="cls-1" d="M333.64,98.97c-4.52-1.71-9.52-2.13-14.26-1.2-1.22.24-2.44.58-3.49,1.24-1.42.9-2.4,2.33-3.35,3.72-2.51,3.69-5.03,7.38-7.54,11.07-1.51,2.22-3.06,4.54-3.49,7.19"/>
    <path class="cls-1" d="M298.93,119.72c-2.29,5.56-8.49,8.18-13.14,11.99-4.99,4.08-8.37,9.78-11.13,15.6-1.26,2.64-2.86,5.7-5.76,6.13-1.07.16-2.23-.08-3.21.38-1.78.84-1.88,3.32-1.55,5.27,1.39,8.26,5.59,16.01,11.74,21.69,1.78,1.65,3.74,3.14,5.24,5.05,1.4,1.78,2.39,3.92,4.14,5.35,1.62,1.32,3.7,1.89,5.71,2.42,7.29,1.94,14.59,3.88,21.88,5.83,3.51.93,7.15,1.94,9.87,4.33,3.25,2.84,4.68,7.17,5.98,11.28,1.25,3.95,2.35,8.71-.33,11.86.11,2.4.26,4.95,1.6,6.94s4.33,3.09,6.23,1.61"/>
    <path class="cls-1" d="M264.58,119.8c5.12,1.98,8.49,6.93,10.63,11.99s3.39,10.49,6,15.32c2.75,5.09,6.88,9.29,9.83,14.26,3.76,6.34,2.66,10.33,1.72,16.91-.85,5.92,1.46,13.09,4.04,18.33.6,1.21,1.29,2.43,2.41,3.19,1.35.92,3.1,1,4.73.88,10.84-.8,20.97-9.06,31.54-6.52-4.45-1.16-8.41-4.08-10.84-7.98-3.2-5.14-4.05-12.11-9.12-15.42-3-1.96-6.77-2.11-10.27-2.86s-7.27-2.65-8.12-6.12c7.92.46,15.04-4.43,21.46-9.1,7.57-5.51,15.14-11.01,22.72-16.52"/>
    <path class="cls-1" d="M276.44,153.77c-.73,3.41-1.3,6.91-.99,10.38s1.56,6.97,4.05,9.42"/>
    <path class="cls-1" d="M278.79,166.51c.79,3.22,2.9,6.1,5.72,7.84"/>
    <path class="cls-1" d="M305.51,184.32l-2.39,2.76"/>
    <path class="cls-1" d="M305.86,143.14c-.18,1.71.07,3.47.73,5.07.1.25.25.52.52.56s.47-.4.22-.49"/>
    <path class="cls-1" d="M316.04,126.82c-1.06,1.08-1.95,2.32-2.65,3.67"/>
    <path class="cls-1" d="M323.25,105.13l-5.91,3.6"/>
    <path class="cls-1" d="M310.16,126.35c-4.21,1.12-8.58,1.59-12.94,1.47"/>
    <path class="cls-1" d="M30.73,199.69c4.96,6.02,6.8,14.03,11.14,20.51,5.19,7.76,13.98,13.46,16.18,22.53.32,1.31.55,2.77,1.59,3.63.54.44,1.23.66,1.9.85,4.47,1.26,9.54,1.78,13.53-.59,2.54-1.51,4.31-4.01,6-6.44,2.96-4.25,6.3-8.39,9.08-12.74,2.24-3.52,1.98-9.01,1.51-13.09-.39-3.35-1.5-6.57-2.48-9.79-2.77-9.14-4.52-18.6-5.18-28.13-.97-13.85.33-27.77-.11-41.65-.08-2.39-.23-4.86-1.33-6.99s-3.42-3.8-5.78-3.4c-.35-3.12-.68-6.35.24-9.35.82-2.66,2.57-4.94,3.54-7.55s.9-6-1.33-7.67c-2.07,4.93-4.3,9.8-6.67,14.6-1.47-9.84-3.01-19.88-7.54-28.74,2.96,10.26,4.28,20.98,3.91,31.65-3.21-11.76-14.04-21.05-26.16-22.43.8,5.54,5.94,9.24,10.56,12.4s9.06,7.55,9.29,13.14l-13.04-1.38c-3.56-.38-7.24-.74-10.65.35-6.29,2.02-10.03,8.38-15.37,12.27-1.53,1.11-3.21,2.03-4.63,3.28-1.5,1.32-2.68,2.97-3.64,4.72-3.65,6.62-4.25,14.47-4.04,22.02.14,5.18.67,10.49,2.96,15.14,3.38,6.87,10.2,11.44,17.27,14.38.4-4.27,3.55-7.69,6.53-10.77-1.68,2.7,0,6.16,1.66,8.87,2.79,4.56,5.75,9.28,10.3,12.09.36-4.62,1.52-9.18,3.42-13.41-.65,2.03-.17,4.37,1.22,5.98,1.18-3.56,2.79-6.98,4.76-10.17,1.24,4.59,3.18,8.99,5.74,13,.25-4.33,1.29-8.61,3.05-12.57,3.2,2.9,5.28,7,5.73,11.29.06-2.19.65-4.35,1.72-6.27-.14,8.49-.21,17.34,3.5,24.97.29-5.46,1.45-10.87,3.43-15.97-1.24,7.86-.45,16.03,2.26,23.51l3.82-18.87"/>
    <path class="cls-1" d="M59.17,205.02c1.24,2.32,1.67,5.07,1.21,7.66"/>
    <path class="cls-1" d="M57.89,210.99c2.92,2.05,5.58,4.47,7.88,7.2-2.12.73-4.57.42-6.66,1.23-.98.38-1.82,1.07-2.75,1.58-1.89,1.02-4.21,1.2-6.23.48s-3.71-2.34-4.48-4.34c-.52-1.35-.71-2.95-1.82-3.88"/>
    <path class="cls-1" d="M48.23,202.12c-1.13,4.65-1.35,9.52-.64,14.25"/>
    <path class="cls-1" d="M32.21,192.61c3.97,1.66,4.55,5.16,9.62,5.2-.37-2.35-2.72-3.78-4.82-4.89-.61-.32-1.51-.58-1.88,0"/>
    <path class="cls-1" d="M65.43,198.6c2.42.43,2.95,2.05,5.2,3.03.55.24,1.14.48,1.72.34s1.03-.87.67-1.35"/>
    <path class="cls-1" d="M60.2,197.95c4.08-2.85,9.28-4.06,14.19-3.3"/>
    <path class="cls-1" d="M31.18,193.54c5.34-.58,10.75-.57,16.09.03"/>
    <path class="cls-1" d="M71.72,229.34c-2.11-2.08-4.98-3.37-7.94-3.55-2.92-.18-5.87.69-8.77.28-.63-.09-1.27-.24-1.91-.16s-1.29.45-1.46,1.07"/>
    <path class="cls-1" d="M56.44,238.23c5.17,1.07,10.42-.93,15.32-2.9,2.71-1.09,5.49-2.23,7.56-4.29"/>
    <path class="cls-1" d="M11.37,170.91l-8.39,2.8c-.7.23-1.43.48-1.94,1.01-.93.96-.86,2.49-.67,3.81.52,3.77,1.42,7.48,2.32,11.19,1.85,7.65,3.71,15.3,5.56,22.95,1,4.11,2,8.24,3.43,12.22,5.31,14.73,16.54,27.59,17.64,43.21"/>
    <path class="cls-1" d="M21.35,204.03c2.28,3.07,4.33,6.3,6.14,9.67.68,1.26,1.32,2.55,2.1,3.76,1.74,2.72,4.09,5,6.42,7.24"/>
    <path class="cls-1" d="M37.54,227.88c3.61,6.88,6.52,14.13,8.65,21.61.88,3.09,1.83,6.5,4.52,8.26.87.57,1.86.91,2.7,1.52,3.84,2.76,3.34,9.81,7.8,11.41.1-.51.2-1.03.3-1.54"/>
    <path class="cls-1" d="M37.79,212.43c-.26,3.32-.59,6.68-1.83,9.77-1.67,4.18-4.87,7.55-7.98,10.8,2,.45,4.08-.09,6.06-.62.36-.1.73-.2,1.02-.43.29-.23.47-.57.65-.89,1.08-2.03,2.17-4.05,3.25-6.08.74-1.39,1.5-2.81,1.74-4.36"/>
    <path class="cls-1" d="M22.12,186.55c-.07,3.52,1.44,6.89,3.32,9.86s4.18,5.68,5.94,8.73c-1.26-2.15-2.67-4.5-3.15-6.96s.02-5.24,1.87-6.92"/>
  </g>
</svg>