<?xml version="1.0" encoding="UTF-8"?>
<svg id="Layer_2" data-name="Layer 2" xmlns="http://www.w3.org/2000/svg" viewBox="0 0 471.66 37.47">
  <defs>
    <style>
      .cls-1 {
        fill: #ddd;
        stroke-width: 0px;
      }
    </style>
  </defs>
  <g id="Layer_3" data-name="Layer 3">
    <g>
      <path class="cls-1" d="M0,1.26h22.18v5.75H6.43v5.96h13.86v5.76H6.43v6.17h15.96v5.75H0V1.26Z"/>
      <path class="cls-1" d="M26.04,19.45v-.08c0-7.52,4.92-11.64,10.25-11.64,3.4,0,5.5,1.55,7.02,3.36V0h6.39v30.67h-6.39v-3.23c-1.55,2.1-3.7,3.65-7.02,3.65-5.25,0-10.25-4.12-10.25-11.64ZM43.39,19.45v-.08c0-3.74-2.48-6.22-5.46-6.22s-5.5,2.44-5.5,6.22v.08c0,3.74,2.52,6.22,5.5,6.22s5.46-2.48,5.46-6.22Z"/>
      <path class="cls-1" d="M53.38,8.15h6.76l5.04,15.08,5.08-15.08h6.64l-8.86,22.68h-5.8l-8.86-22.68Z"/>
      <path class="cls-1" d="M80.72,0h6.72v5.67h-6.72V0ZM80.89,8.15h6.39v22.52h-6.39V8.15Z"/>
      <path class="cls-1" d="M93.28,8.15h6.39v3.19c1.47-1.89,3.36-3.61,6.6-3.61,4.83,0,7.65,3.19,7.65,8.36v14.58h-6.38v-12.56c0-3.02-1.43-4.58-3.86-4.58s-3.99,1.55-3.99,4.58v12.56h-6.39V8.15Z"/>
      <path class="cls-1" d="M132.72,1.26h6.47v11.64h11.93V1.26h6.47v29.41h-6.47v-11.8h-11.93v11.8h-6.47V1.26Z"/>
      <path class="cls-1" d="M162.87,19.53v-.08c0-6.47,5.21-11.72,12.22-11.72s12.14,5.17,12.14,11.64v.08c0,6.47-5.21,11.72-12.22,11.72s-12.14-5.17-12.14-11.64ZM167.62,0h6.13v5.67h-6.13V0ZM180.94,19.53v-.08c0-3.32-2.39-6.22-5.92-6.22s-5.84,2.81-5.84,6.13v.08c0,3.32,2.39,6.22,5.92,6.22s5.84-2.81,5.84-6.13ZM176.36,0h6.13v5.67h-6.13V0Z"/>
      <path class="cls-1" d="M191.98,35.12l2.18-4.79c2.31,1.3,4.62,2.06,7.6,2.06,4.37,0,6.43-2.1,6.43-6.13v-1.09c-1.89,2.27-3.95,3.65-7.35,3.65-5.25,0-10-3.82-10-10.5v-.08c0-6.72,4.83-10.5,10-10.5,3.49,0,5.54,1.47,7.27,3.36v-2.94h6.38v17.43c0,4.03-.97,6.97-2.86,8.86-2.1,2.1-5.33,3.03-9.7,3.03-3.66,0-7.1-.84-9.96-2.35ZM208.19,18.31v-.08c0-3.07-2.39-5.21-5.5-5.21s-5.46,2.14-5.46,5.21v.08c0,3.11,2.35,5.21,5.46,5.21s5.5-2.14,5.5-5.21Z"/>
      <path class="cls-1" d="M220.5,0h6.39v30.67h-6.39V0Z"/>
      <path class="cls-1" d="M233.01,0h6.72v5.67h-6.72V0ZM233.18,8.15h6.39v22.52h-6.39V8.15Z"/>
      <path class="cls-1" d="M245.57,8.15h6.38v3.19c1.47-1.89,3.36-3.61,6.6-3.61,4.83,0,7.65,3.19,7.65,8.36v14.58h-6.39v-12.56c0-3.02-1.43-4.58-3.86-4.58s-3.99,1.55-3.99,4.58v12.56h-6.38V8.15Z"/>
      <path class="cls-1" d="M285.01,1.26h22.39v5.88h-15.92v6.26h14.03v5.88h-14.03v11.38h-6.47V1.26Z"/>
      <path class="cls-1" d="M310.17,19.53v-.08c0-6.47,5.21-11.72,12.22-11.72s12.14,5.17,12.14,11.64v.08c0,6.47-5.21,11.72-12.22,11.72s-12.14-5.17-12.14-11.64ZM328.23,19.53v-.08c0-3.32-2.39-6.22-5.92-6.22s-5.84,2.81-5.84,6.13v.08c0,3.32,2.39,6.22,5.92,6.22s5.84-2.81,5.84-6.13Z"/>
      <path class="cls-1" d="M339.15,8.15h6.38v4.54c1.3-3.11,3.4-5.12,7.18-4.96v6.68h-.34c-4.24,0-6.85,2.56-6.85,7.94v8.32h-6.38V8.15Z"/>
      <path class="cls-1" d="M354.94,27.68l2.73-4.2c2.44,1.76,5,2.69,7.1,2.69,1.85,0,2.69-.67,2.69-1.68v-.08c0-1.39-2.18-1.85-4.66-2.6-3.15-.92-6.72-2.39-6.72-6.76v-.08c0-4.58,3.7-7.14,8.23-7.14,2.86,0,5.96.97,8.4,2.6l-2.44,4.41c-2.23-1.3-4.45-2.1-6.09-2.1s-2.35.67-2.35,1.55v.08c0,1.26,2.14,1.85,4.58,2.69,3.15,1.05,6.8,2.56,6.8,6.68v.08c0,5-3.74,7.27-8.61,7.27-3.15,0-6.68-1.05-9.66-3.4Z"/>
      <path class="cls-1" d="M384.17,27.72v2.94h-6.38V0h6.38v11.38c1.55-2.1,3.7-3.66,7.02-3.66,5.25,0,10.25,4.12,10.25,11.64v.08c0,7.52-4.92,11.64-10.25,11.64-3.4,0-5.5-1.55-7.02-3.36ZM395.05,19.45v-.08c0-3.74-2.52-6.22-5.5-6.22s-5.46,2.48-5.46,6.22v.08c0,3.74,2.48,6.22,5.46,6.22s5.5-2.44,5.5-6.22Z"/>
      <path class="cls-1" d="M405.04,19.53v-.08c0-6.43,4.58-11.72,11.13-11.72,7.52,0,10.96,5.84,10.96,12.22,0,.5-.04,1.09-.08,1.68h-15.67c.63,2.9,2.65,4.41,5.5,4.41,2.14,0,3.7-.67,5.46-2.31l3.65,3.24c-2.1,2.6-5.12,4.2-9.2,4.2-6.76,0-11.76-4.75-11.76-11.64ZM420.92,17.64c-.38-2.86-2.06-4.79-4.75-4.79s-4.37,1.89-4.87,4.79h9.62Z"/>
      <path class="cls-1" d="M431.88,8.15h6.38v4.54c1.3-3.11,3.4-5.12,7.18-4.96v6.68h-.34c-4.24,0-6.85,2.56-6.85,7.94v8.32h-6.38V8.15Z"/>
      <path class="cls-1" d="M449.14,35.12l2.18-4.79c2.31,1.3,4.62,2.06,7.6,2.06,4.37,0,6.43-2.1,6.43-6.13v-1.09c-1.89,2.27-3.95,3.65-7.35,3.65-5.25,0-10-3.82-10-10.5v-.08c0-6.72,4.83-10.5,10-10.5,3.49,0,5.54,1.47,7.27,3.36v-2.94h6.38v17.43c0,4.03-.97,6.97-2.86,8.86-2.1,2.1-5.33,3.03-9.7,3.03-3.66,0-7.1-.84-9.96-2.35ZM465.36,18.31v-.08c0-3.07-2.39-5.21-5.5-5.21s-5.46,2.14-5.46,5.21v.08c0,3.11,2.35,5.21,5.46,5.21s5.5-2.14,5.5-5.21Z"/>
    </g>
  </g>
</svg>